# xmcd
#
# Track frame offsets:
# 150
# 20617
# 41555
# 60667
# 78022
# 90302
# 100290
# 107070
# 132122
# 141869
# 160868
# 181831
#
# Disc length: 2830 seconds
#
# Revision: 1
# Processed by: cddbd v1.5.2PL0 Copyright (c) Steve Scherf et al.
# Submitted via: CedeCatalogueitor 2.6.0.6 http://personales.ya.com/cdcatalogueitor
#
DISCID=8e0b0c0c
DTITLE=Audience - A Shake In Calm Water
DYEAR=1900
DGENRE=
TTITLE0=Wide Man
TTITLE1=Talk Fashion
TTITLE2=Betiko
TTITLE3=The Chance Of My Life
TTITLE4=Criminal Tango
TTITLE5=Criminal Celebration
TTITLE6=Starts And Ends (Number 1)
TTITLE7=Away Back Home
TTITLE8=Reel To Reel
TTITLE9=Follow That Sax Sound
TTITLE10=Midnight Kiss
TTITLE11=You Don´t Have To
EXTD=
EXTT0=
EXTT1=
EXTT2=
EXTT3=
EXTT4=
EXTT5=
EXTT6=
EXTT7=
EXTT8=
EXTT9=
EXTT10=
EXTT11=
PLAYORDER=
